# File generated by ImageToStl.com - Free Image and 3D model conversion tools

o obj1
v 125.01000214 127.96100616 0
v 126.47200012 130.5710144 0
v 130.99000549 128.03700256 0
v 129.52799988 125.42900848 0
v 126.53800201 125.39100647 0
v 129.46200562 130.60900879 0
v 125.89399719 124.23900604 3.65000153
v 123.69200134 127.94300842 3.65000153
v 125.79599762 131.70300293 3.65000153
v 130.10600281 131.75900269 3.65000153
v 132.30799866 128.05300903 3.65000153
v 130.20399475 124.2950058 3.65000153
v 126.53800201 125.39100647 6.92000198
v 125.01000214 127.96100616 6.92000198
v 126.47200012 130.5710144 6.92000198
v 129.46200562 130.60900879 6.92000198
v 130.99000549 128.03700256 6.92000198
v 129.52799988 125.42900848 6.92000198
v 125.01000214 127.96100616 24.61199951
v 126.53800201 125.39100647 24.61199951
v 126.47200012 130.5710144 24.61199951
v 129.46200562 130.60900879 24.61199951
v 130.99000549 128.03700256 24.61199951
v 129.52799988 125.42900848 24.61199951
v 125.89399719 124.23900604 26.52199936
v 123.69200134 127.94300842 26.52199936
v 125.79599762 131.70300293 26.52199936
v 130.10600281 131.75900269 26.52199936
v 132.30799866 128.05300903 26.52199936
v 130.20399475 124.2950058 26.52199936
v 125.51999664 126.16101074 31.55400085
v 125.91400146 122.66500854 30.65200043
v 128.05000305 124.26700592 30.65200043
v 126.91600037 126.17900848 34.69000244
v 128.05000305 124.26700592 33.78800201
v 125.4980011 127.9670105 31.55400085
v 125.47399902 129.77301025 31.55400085
v 127.95199585 131.73100281 30.65200043
v 125.77999878 133.27900696 30.65200043
v 126.87000275 129.79301453 34.69000244
v 126.89399719 127.98500824 34.69000244
v 130.47999573 129.83900452 31.55400085
v 130.08799744 133.33300781 30.65200043
v 129.08399963 129.8190155 34.69000244
v 127.95199585 131.73100281 33.78800201
v 130.5039978 128.03100586 31.55400085
v 130.52600098 126.2250061 31.55400085
v 130.22399902 122.7210083 30.65200043
v 129.13000488 126.20700836 34.69000244
v 129.10600281 128.01301575 34.69000244
v 125.91400146 122.66500854 26.52199936
v 130.22399902 122.7210083 26.52199936
v 125.77999878 133.27900696 26.52199936
v 130.08799744 133.33300781 26.52199936
v 129.19999695 116.3809967 30.93600082
v 127.09799957 116.35499573 30.93600082
v 127.09799957 116.35499573 32.99399948
v 129.19999695 116.3809967 32.99399948
v 126.80000305 139.61700439 30.93600082
v 128.9039917 139.64500427 30.93600082
v 128.9039917 139.64500427 32.99399948
v 126.80000305 139.61700439 32.99399948
v 128.71800232 113.40299988 34.59999847
v 128.71800232 113.40299988 35.83399963
v 127.65799713 113.39099884 34.59999847
v 127.65799713 113.39099884 35.83399963
v 127.28199768 142.59500122 35.83399963
v 127.28199768 142.59500122 34.59999847
v 128.34399414 142.60899353 34.59999847
v 128.34399414 142.60899353 35.83399963
v 128.03599548 125.08700562 99.58000183
v 128.05000305 124.26700592 92.42399597
v 128.53799438 127.53900909 100.61199951
v 128.56599426 127.10301208 90.19799805
v 127.96399689 130.91300964 99.58000183
v 127.95199585 131.73100281 92.42399597
v 127.46599579 128.45901489 100.61199951
v 127.43399811 128.89500427 90.19799805
v 128.04199219 124.82701111 52.06800079
v 128.96200562 126.4750061 52.97200012
v 127.0779953 126.45101166 52.97200012
v 127.05999756 127.98700714 53.02199936
v 127.04000092 129.52301025 52.97200012
v 127.95999908 131.17100525 52.06800079
v 128.91999817 129.54701233 52.97200012
v 128.94200134 128.01101685 53.02199936
v 128.05000305 124.26700592 68.47399902
v 129.13000488 126.20700836 69.37599945
v 126.91600037 126.17900848 69.37599945
v 126.89399719 127.98500824 69.45200348
v 126.87000275 129.79301453 69.37599945
v 127.95199585 131.73100281 68.47399902
v 129.08399963 129.8190155 69.37599945
v 129.10600281 128.01301575 69.45200348
v 127.45800018 127.08901215 90.19799805
v 128.54199219 128.91101074 90.19799805
v 128.0019989 127.99900818 111.01399994
v 127.97399902 130.09300232 106.73400116
v 128.02600098 125.90500641 106.73400116
v 127.47599792 127.52500916 100.61199951
v 128.52400208 128.4730072 100.61199951
vn 0 0 -1
vn -0.82032 -0.48772 -0.29867
vn -0.82035 -0.48769 -0.29863
vn -0.83271 0.46644 -0.29839
vn -0.83281 0.46602 -0.29877
vn -0.01213 0.95441 -0.29824
vn -0.0124 0.95433 -0.29849
vn 0.82057 0.48749 -0.29837
vn 0.82052 0.48753 -0.29842
vn 0.8325 -0.46669 -0.29856
vn 0.83263 -0.46617 -0.29904
vn 0.01213 -0.95426 -0.29872
vn 0.0124 -0.95418 -0.29897
vn -0.81149 -0.48242 0.32977
vn -0.81148 -0.48247 0.32973
vn -0.82392 0.46104 0.32955
vn -0.82359 0.46133 0.32996
vn -0.01227 0.94412 0.32937
vn -0.012 0.94403 0.32963
vn 0.8117 0.48229 0.32947
vn 0.81171 0.48223 0.32952
vn 0.82375 -0.46119 0.32976
vn 0.82334 -0.46155 0.33027
vn 0.01226 -0.94394 0.32988
vn 0.012 -0.94385 0.33015
vn -0.85955 -0.51105 -0
vn -0.87245 0.4887 0
vn -0.01271 0.99992 0
vn 0.85973 0.51075 0
vn 0.87229 -0.48899 0
vn 0.01271 -0.99992 0
vn -0.73769 -0.4386 -0.51327
vn -0.73774 -0.43858 -0.51321
vn -0.74897 0.41953 -0.51287
vn -0.74887 0.41905 -0.5134
vn -0.01091 0.85852 -0.51267
vn -0.01115 0.85831 -0.51302
vn 0.73806 0.43847 -0.51285
vn 0.73799 0.43849 -0.51292
vn 0.7487 -0.41971 -0.51312
vn 0.74858 -0.41911 -0.51378
vn 0.01091 -0.85812 -0.51334
vn 0.01115 -0.85791 -0.51368
vn 0.17102 -0.22803 0.95852
vn -0.73506 -0.59193 0.33061
vn -0.59929 -0.80053 0
vn -0.85226 -0.50666 0.13018
vn -0.94114 -0.01146 0.33783
vn 0.16546 0.23216 0.9585
vn -0.91347 -0.01212 0.40671
vn -0.91348 -0.01214 0.40671
vn -0.91349 -0.01113 0.40671
vn -0.17117 0.22822 0.95844
vn 0.73523 0.59148 0.33106
vn 0.59919 0.80061 -0
vn 0.85241 0.50648 0.1299
vn 0.94124 0.0125 0.3375
vn -0.16532 -0.23248 0.95845
vn 0.91348 0.01214 0.40671
vn 0.91327 0.01113 0.40719
vn -0.99752 -0.01268 -0.0693
vn -0.99371 -0.11199 0
vn 0.99644 -0.07708 -0.0342
vn 0.99992 0.01271 0
vn 0 0 1
vn 0.9975 0.01141 -0.06978
vn 0.99377 0.11149 -0
vn -0.99636 0.07828 -0.03373
vn -0.99995 -0.01015 -0
vn 0.00743 -0.57217 -0.8201
vn 0.00708 -0.57229 -0.82002
vn -0.98285 -0.18442 0
vn -0.98285 -0.18442 -0
vn -0.00451 0.34721 0.93777
vn -0.00429 0.34712 0.93781
vn 0.98721 -0.15945 0
vn 0.98721 -0.15945 0
vn -0.00717 0.57226 -0.82004
vn -0.00761 0.5721 -0.82015
vn 0.98286 0.18436 0
vn 0.98286 0.18436 0
vn 0.00435 -0.34714 0.9378
vn 0.00462 -0.34726 0.93776
vn -0.9873 0.15889 0
vn -0.9873 0.15889 0
vn 0.98715 -0.15977 0
vn 0.98715 -0.15977 0
vn 0.00961 -0.77659 -0.62993
vn 0.00879 -0.77677 -0.62972
vn -0.98262 -0.18565 0
vn -0.98262 -0.18565 -0
vn -0.00855 0.69097 0.72283
vn -0.00782 0.69078 0.72302
vn 0.01132 -0.99994 0
vn -0.98715 0.15977 0
vn -0.01034 0.77663 -0.62987
vn -0.01023 0.77666 -0.62984
vn 0.98262 0.18565 0
vn 0.98262 0.18565 0
vn 0.00919 -0.69091 0.72288
vn 0.0091 -0.69088 0.72291
vn -0.01317 0.99991 0
vn 0.87373 -0.48641 0
vn 0.54724 -0.80212 0.239
vn -0.87314 0.48748 0
vn -0.54717 0.80234 0.23846
vn -0.91349 -0.01113 0.40671
vn -0.83333 0.46631 0.29686
vn -0.99753 -0.01326 -0.06892
vn 0.91327 0.01113 0.40719
vn 0.91348 0.01213 0.40671
vn 0.83327 -0.46652 0.29669
vn 0.99758 0.01215 -0.0685
vn 0.97713 -0.21103 0.02609
vn 0.98513 -0.17152 0.00983
vn -0.97756 0.20912 0.02554
vn -0.98506 0.1719 0.01022
vn 0.8694 -0.49386 0.01551
vn 0.87061 -0.49174 0.01521
vn -0.85606 -0.51665 0.01527
vn -0.85679 -0.51543 0.01541
vn -0.99989 -0.01201 0.00906
vn -0.99988 -0.01218 0.00904
vn -0.99988 -0.01272 0.00911
vn -0.99987 -0.01327 0.00906
vn -0.86941 0.49386 0.01551
vn -0.86997 0.49286 0.01537
vn 0.85697 0.51513 0.01535
vn 0.85719 0.51477 0.01539
vn 0.99985 0.01461 0.00895
vn 0.99988 0.01218 0.00915
vn 0.99988 0.01273 0.009
vn 0.99987 0.01329 0.00895
vn 0.87691 -0.48036 -0.01682
vn 0.87693 -0.48033 -0.01683
vn -0.86345 -0.50415 -0.01689
vn -0.86386 -0.50345 -0.01676
vn -0.99988 -0.01176 -0.0101
vn -0.99988 -0.01139 -0.01006
vn -0.99985 -0.0137 -0.01014
vn -0.99986 -0.01335 -0.0101
vn -0.87633 0.48141 -0.01686
vn -0.87697 0.48025 -0.01699
vn 0.86386 0.50344 -0.01698
vn 0.86477 0.50189 -0.01671
vn 0.99988 0.01176 -0.00998
vn 0.99985 0.01399 -0.01023
vn 0.99986 0.01371 -0.01002
vn 0.99986 0.01335 -0.00998
vn 0.98385 -0.179 0
vn 0.86381 -0.5018 0.04499
vn -0.98312 -0.17985 0.03345
vn -0.8601 -0.51012 0
vn -0.99956 -0.0133 0.0266
vn -0.99956 -0.01328 0.0266
vn -0.99957 -0.01215 0.02655
vn -0.98373 0.17968 0
vn -0.86317 0.50289 0.04507
vn 0.98322 0.17933 0.03341
vn 0.86049 0.50946 -0
vn 0.99956 0.0133 0.0266
vn 0.99956 0.01327 0.0266
vn 0.99957 0.01217 0.02655
vn -0.97304 0.22269 0.05999
vn -0.99991 -0.01373 -0.00018
vn 0.97265 -0.2244 0.06004
vn 0.99994 0.01123 0.00011
vn -0.99864 -0.01069 0.05099
vn 0.9986 0.01496 0.05079
vn 0.97194 0.23383 0.02544
vn 0.9904 0.12662 0.05547
vn -0.97191 -0.23399 0.0254
vn -0.99053 -0.12541 0.0558
vn -0.99994 -0.01071 0.00262
vn -0.99991 -0.01329 0.00228
vn -0.97351 -0.22837 0.01124
vn -0.98154 -0.19023 0.01988
vn 0.99989 0.01498 0.00206
vn 0.99991 0.01327 0.00229
vn 0.97355 0.22821 0.01128
vn 0.98166 0.18958 0.02002
f 1//1 2//1 3//1
f 4//1 5//1 1//1
f 3//1 4//1 1//1
f 2//1 6//1 3//1
f 5//2 7//2 1//2
f 7//3 8//3 1//3
f 1//4 8//4 2//4
f 8//5 9//5 2//5
f 2//6 9//6 6//6
f 9//7 10//7 6//7
f 6//8 10//8 3//8
f 10//9 11//9 3//9
f 3//10 11//10 4//10
f 11//11 12//11 4//11
f 4//12 12//12 5//12
f 12//13 7//13 5//13
f 7//14 13//14 8//14
f 13//15 14//15 8//15
f 8//16 14//16 9//16
f 14//17 15//17 9//17
f 9//18 15//18 10//18
f 15//19 16//19 10//19
f 10//20 16//20 11//20
f 16//21 17//21 11//21
f 11//22 17//22 12//22
f 17//23 18//23 12//23
f 12//24 18//24 7//24
f 18//25 13//25 7//25
f 19//26 14//26 20//26
f 13//26 20//26 14//26
f 21//27 15//27 19//27
f 14//27 19//27 15//27
f 22//28 16//28 21//28
f 15//28 21//28 16//28
f 17//29 22//29 23//29
f 22//29 17//29 16//29
f 18//30 23//30 24//30
f 23//30 18//30 17//30
f 24//31 20//31 13//31
f 13//31 18//31 24//31
f 20//32 25//32 19//32
f 25//33 26//33 19//33
f 19//34 26//34 21//34
f 26//35 27//35 21//35
f 21//36 27//36 22//36
f 27//37 28//37 22//37
f 22//38 28//38 23//38
f 28//39 29//39 23//39
f 23//40 29//40 24//40
f 29//41 30//41 24//41
f 24//42 30//42 20//42
f 30//43 25//43 20//43
f 31//44 32//44 33//44
f 34//45 31//45 35//45
f 31//46 33//46 35//46
f 25//47 31//47 26//47
f 31//48 36//48 26//48
f 37//49 38//49 39//49
f 40//50 37//50 41//50
f 36//51 41//51 37//51
f 41//52 36//52 34//52
f 42//53 43//53 38//53
f 44//54 42//54 45//54
f 42//55 38//55 45//55
f 28//56 42//56 29//56
f 42//57 46//57 29//57
f 47//58 33//58 48//58
f 49//59 47//59 50//59
f 47//60 46//60 50//60
f 25//61 51//61 31//61
f 51//62 32//62 31//62
f 47//63 48//63 30//63
f 48//64 52//64 30//64
f 43//65 39//65 38//65
f 32//65 48//65 33//65
f 53//1 54//1 28//1
f 28//1 27//1 53//1
f 52//1 51//1 25//1
f 25//1 30//1 52//1
f 28//66 54//66 42//66
f 54//67 43//67 42//67
f 37//68 39//68 27//68
f 39//69 53//69 27//69
f 52//70 55//70 51//70
f 55//71 56//71 51//71
f 56//72 57//72 32//72
f 32//73 51//73 56//73
f 32//74 57//74 48//74
f 57//75 58//75 48//75
f 55//76 52//76 58//76
f 48//77 58//77 52//77
f 53//78 59//78 54//78
f 59//79 60//79 54//79
f 61//80 43//80 60//80
f 54//81 60//81 43//81
f 43//82 61//82 39//82
f 61//83 62//83 39//83
f 62//84 59//84 53//84
f 53//85 39//85 62//85
f 63//86 55//86 64//86
f 58//87 64//87 55//87
f 55//88 63//88 56//88
f 63//89 65//89 56//89
f 65//90 66//90 57//90
f 57//91 56//91 65//91
f 57//92 66//92 58//92
f 66//93 64//93 58//93
f 65//94 63//94 66//94
f 64//94 66//94 63//94
f 67//95 68//95 59//95
f 59//95 62//95 67//95
f 59//96 68//96 60//96
f 68//97 69//97 60//97
f 70//98 61//98 69//98
f 60//99 69//99 61//99
f 61//100 70//100 62//100
f 70//101 67//101 62//101
f 68//102 70//102 69//102
f 70//102 68//102 67//102
f 35//103 33//103 49//103
f 33//104 47//104 49//104
f 45//105 38//105 40//105
f 38//106 37//106 40//106
f 36//107 31//107 34//107
f 26//108 36//108 27//108
f 36//109 37//109 27//109
f 50//110 46//110 44//110
f 46//111 42//111 44//111
f 29//112 46//112 30//112
f 46//113 47//113 30//113
f 71//114 72//114 73//114
f 72//115 74//115 73//115
f 75//116 76//116 77//116
f 76//117 78//117 77//117
f 79//118 35//118 80//118
f 35//119 49//119 80//119
f 81//120 34//120 79//120
f 34//121 35//121 79//121
f 82//122 41//122 81//122
f 41//123 34//123 81//123
f 83//124 40//124 82//124
f 40//125 41//125 82//125
f 84//126 45//126 83//126
f 45//127 40//127 83//127
f 85//128 44//128 84//128
f 44//129 45//129 84//129
f 86//130 50//130 85//130
f 50//131 44//131 85//131
f 80//132 49//132 86//132
f 49//133 50//133 86//133
f 87//134 79//134 88//134
f 79//135 80//135 88//135
f 89//136 81//136 87//136
f 81//137 79//137 87//137
f 90//138 82//138 89//138
f 82//139 81//139 89//139
f 91//140 83//140 90//140
f 83//141 82//141 90//141
f 92//142 84//142 91//142
f 84//143 83//143 91//143
f 93//144 85//144 92//144
f 85//145 84//145 92//145
f 94//146 86//146 93//146
f 86//147 85//147 93//147
f 88//148 80//148 94//148
f 80//149 86//149 94//149
f 72//150 87//150 74//150
f 87//151 88//151 74//151
f 95//152 89//152 72//152
f 89//153 87//153 72//153
f 89//154 95//154 90//154
f 90//155 95//155 78//155
f 91//156 90//156 78//156
f 76//157 92//157 78//157
f 92//158 91//158 78//158
f 96//159 93//159 76//159
f 93//160 92//160 76//160
f 93//161 96//161 94//161
f 94//162 96//162 74//162
f 88//163 94//163 74//163
f 77//164 97//164 75//164
f 97//165 98//165 75//165
f 73//166 97//166 71//166
f 97//167 99//167 71//167
f 97//168 77//168 100//168
f 97//169 73//169 101//169
f 75//170 98//170 101//170
f 98//171 97//171 101//171
f 71//172 99//172 100//172
f 99//173 97//173 100//173
f 77//174 78//174 100//174
f 78//175 95//175 100//175
f 100//176 95//176 71//176
f 95//177 72//177 71//177
f 73//178 74//178 101//178
f 74//179 96//179 101//179
f 101//180 96//180 75//180
f 96//181 76//181 75//181
# Vertices: 101, normals: 181, texture coordinates: 0, faces: 198

